<?xml version="1.0" standalone="no"?>
<!DOCTYPE svg PUBLIC "-//W3C//DTD SVG 20010904//EN"
 "http://www.w3.org/TR/2001/REC-SVG-20010904/DTD/svg10.dtd">
<svg version="1.0" xmlns="http://www.w3.org/2000/svg"
 width="99.000000pt" height="99.000000pt" viewBox="0 0 99.000000 99.000000"
 preserveAspectRatio="xMidYMid meet">

<g transform="translate(0.000000,99.000000) scale(0.100000,-0.100000)"
fill="#000000" stroke="none">
<path d="M0 495 l0 -495 495 0 495 0 0 495 0 495 -495 0 -495 0 0 -495z m623
284 c48 -13 103 -61 124 -108 23 -50 32 -459 12 -472 -20 -13 -117 -11 -125 2
-4 6 -6 82 -5 168 1 175 -7 223 -42 259 -33 33 -100 40 -146 15 -62 -33 -71
-65 -71 -258 0 -120 -4 -175 -12 -183 -17 -17 -113 -15 -127 2 -8 9 -11 94 -9
287 l3 274 65 0 c63 0 65 -1 68 -27 2 -16 6 -28 8 -28 3 0 22 13 42 29 59 47
138 62 215 40z"/>
</g>
</svg>
